<svg width="45" height="46" viewBox="0 0 45 46" fill="none" xmlns="http://www.w3.org/2000/svg">
<g id="phone-outgoing" clip-path="url(#clip0_317_66)">
<path id="Vector" d="M43.125 13.1348V1.88477H31.875" stroke="#FDFFFC" stroke-width="2" stroke-linecap="round" stroke-linejoin="round"/>
<path id="Vector_2" d="M30 15.0098L43.125 1.88477" stroke="#FDFFFC" stroke-width="2" stroke-linecap="round" stroke-linejoin="round"/>
<path id="Vector_3" d="M41.25 31.7349V37.3599C41.2521 37.8821 41.1452 38.399 40.936 38.8775C40.7268 39.3559 40.4199 39.7854 40.0351 40.1384C39.6504 40.4915 39.1961 40.7602 38.7014 40.9275C38.2067 41.0948 37.6826 41.1569 37.1625 41.1099C31.3928 40.483 25.8506 38.5115 20.9812 35.3537C16.4509 32.4749 12.61 28.634 9.73125 24.1037C6.56246 19.2122 4.59045 13.6431 3.975 7.84745C3.92814 7.32895 3.98976 6.80637 4.15593 6.31299C4.32211 5.81961 4.58919 5.36624 4.94018 4.98174C5.29117 4.59723 5.71838 4.29003 6.1946 4.07968C6.67083 3.86932 7.18564 3.76044 7.70625 3.75995H13.3312C14.2412 3.75099 15.1234 4.07322 15.8133 4.66657C16.5032 5.25992 16.9539 6.08391 17.0812 6.98495C17.3187 8.78507 17.759 10.5526 18.3937 12.2537C18.646 12.9248 18.7006 13.6542 18.5511 14.3553C18.4015 15.0565 18.0541 15.7002 17.55 16.2099L15.1687 18.5912C17.8379 23.2853 21.7246 27.172 26.4187 29.8412L28.8 27.4599C29.3098 26.9558 29.9534 26.6084 30.6546 26.4589C31.3558 26.3093 32.0851 26.3639 32.7562 26.6162C34.4574 27.251 36.2249 27.6913 38.025 27.9287C38.9358 28.0572 39.7676 28.516 40.3622 29.2178C40.9569 29.9195 41.2728 30.8154 41.25 31.7349Z" stroke="#FDFFFC" stroke-width="2" stroke-linecap="round" stroke-linejoin="round"/>
</g>
<defs>
<clipPath id="clip0_317_66">
<rect width="45" height="45" fill="white" transform="translate(0 0.00976562)"/>
</clipPath>
</defs>
</svg>
