<svg width="70" height="70" viewBox="0 0 70 70" fill="none" xmlns="http://www.w3.org/2000/svg">
<path d="M42.875 18.375C42.3406 18.9202 42.0413 19.6532 42.0413 20.4167C42.0413 21.1801 42.3406 21.9131 42.875 22.4583L47.5417 27.125C48.0869 27.6594 48.8199 27.9587 49.5833 27.9587C50.3468 27.9587 51.0798 27.6594 51.625 27.125L62.6208 16.1292C64.0874 19.3701 64.5315 22.9811 63.8938 26.4808C63.2562 29.9806 61.5671 33.2029 59.0516 35.7183C56.5362 38.2337 53.3139 39.9228 49.8142 40.5605C46.3144 41.1982 42.7035 40.7541 39.4625 39.2875L19.3083 59.4417C18.148 60.602 16.5743 61.2538 14.9333 61.2538C13.2924 61.2538 11.7187 60.602 10.5583 59.4417C9.39802 58.2813 8.74615 56.7076 8.74615 55.0667C8.74615 53.4257 9.39802 51.852 10.5583 50.6917L30.7125 30.5375C29.2459 27.2965 28.8018 23.6856 29.4395 20.1858C30.0772 16.6861 31.7663 13.4638 34.2817 10.9484C36.7971 8.43292 40.0194 6.74382 43.5192 6.10616C47.0189 5.4685 50.6299 5.91256 53.8708 7.37916L42.9042 18.3458L42.875 18.375Z" stroke="#FDFFFC" stroke-width="2" stroke-linecap="round" stroke-linejoin="round"/>
</svg>
