<svg width="70" height="70" viewBox="0 0 70 70" fill="none" xmlns="http://www.w3.org/2000/svg">
<path d="M52.5 23.3333H55.4167C58.5109 23.3333 61.4783 24.5625 63.6662 26.7504C65.8542 28.9383 67.0833 31.9058 67.0833 35C67.0833 38.0942 65.8542 41.0617 63.6662 43.2496C61.4783 45.4375 58.5109 46.6667 55.4167 46.6667H52.5" stroke="#FDFFFC" stroke-width="2" stroke-linecap="round" stroke-linejoin="round"/>
<path d="M5.83337 23.3333H52.5V49.5833C52.5 52.6775 51.2709 55.645 49.083 57.8329C46.895 60.0208 43.9276 61.25 40.8334 61.25H17.5C14.4058 61.25 11.4384 60.0208 9.25046 57.8329C7.06254 55.645 5.83337 52.6775 5.83337 49.5833V23.3333Z" stroke="#FDFFFC" stroke-width="2" stroke-linecap="round" stroke-linejoin="round"/>
<path d="M17.5 2.91667V11.6667" stroke="#FDFFFC" stroke-width="2" stroke-linecap="round" stroke-linejoin="round"/>
<path d="M29.1666 2.91667V11.6667" stroke="#FDFFFC" stroke-width="2" stroke-linecap="round" stroke-linejoin="round"/>
<path d="M40.8334 2.91667V11.6667" stroke="#FDFFFC" stroke-width="2" stroke-linecap="round" stroke-linejoin="round"/>
</svg>
