<svg width="215" height="37" viewBox="0 0 215 37" fill="none" xmlns="http://www.w3.org/2000/svg">
<path d="M17.5 28.5975L28.315 35.125L25.445 22.8225L35 14.545L22.4175 13.4775L17.5 1.875L12.5825 13.4775L0 14.545L9.555 22.8225L6.685 35.125L17.5 28.5975Z" fill="#FAB919"/>
<path d="M62.5 28.5975L73.315 35.125L70.445 22.8225L80 14.545L67.4175 13.4775L62.5 1.875L57.5825 13.4775L45 14.545L54.555 22.8225L51.685 35.125L62.5 28.5975Z" fill="#FAB919"/>
<path d="M107.5 28.5975L118.315 35.125L115.445 22.8225L125 14.545L112.418 13.4775L107.5 1.875L102.582 13.4775L90 14.545L99.555 22.8225L96.685 35.125L107.5 28.5975Z" fill="#FAB919"/>
<path d="M152.5 28.5975L163.315 35.125L160.445 22.8225L170 14.545L157.418 13.4775L152.5 1.875L147.582 13.4775L135 14.545L144.555 22.8225L141.685 35.125L152.5 28.5975Z" fill="#FAB919"/>
<path d="M197.5 28.5975L208.315 35.125L205.445 22.8225L215 14.545L202.418 13.4775L197.5 1.875L192.582 13.4775L180 14.545L189.555 22.8225L186.685 35.125L197.5 28.5975Z" fill="#FAB919"/>
</svg>
